# xmcd CD database file
# Copyright (C) 1993-1996 Ti Kan
#
# Track frame offsets:
# 150
# 11825
# 28702
# 45762
# 60237
# 75042
# 90832
# 103625
# 117782
# 130345
#
# Disc length: 1911 seconds
#
# Revision: 0
# Processed by: cddbd v1.4b41PL1 Copyright (c) Steve Scherf et al.
# Submitted via: inCDius 1.1b5
#
DISCID=6007750a
DTITLE=Lacy J. Dalton - Somethin' Special
DYEAR=1900
DGENRE=
TTITLE0=Hard Times
TTITLE1=Over You 
TTITLE2=Closing Time 
TTITLE3=Losing Kind Of Love
TTITLE4=Are There Any Cowboys Left (In The Good Ol' U.S.A.)
TTITLE5=Old Soldier
TTITLE6=If That Ain't Love
TTITLE7=16th Avenue
TTITLE8=Honky Tonk Man
TTITLE9=Dream Baby (How Long Must I Dream)
EXTD=
EXTT0=
EXTT1=
EXTT2=
EXTT3=
EXTT4=
EXTT5=
EXTT6=
EXTT7=
EXTT8=
EXTT9=
PLAYORDER=
